<?xml version="1.0" standalone="no"?>
<!DOCTYPE svg PUBLIC "-//W3C//DTD SVG 20010904//EN"
 "http://www.w3.org/TR/2001/REC-SVG-20010904/DTD/svg10.dtd">
<svg version="1.0" xmlns="http://www.w3.org/2000/svg"
 width="700.000000pt" height="700.000000pt" viewBox="0 0 700.000000 700.000000"
 preserveAspectRatio="xMidYMid meet">
<metadata>
Created by potrace 1.11, written by Peter Selinger 2001-2013
</metadata>
<g transform="translate(0.000000,700.000000) scale(0.100000,-0.100000)"
fill="#000000" stroke="none">
<path d="M3152 6390 c-60 -26 -81 -66 -97 -185 -10 -83 -26 -201 -30 -225 -8
-47 -33 -225 -40 -275 -3 -27 -8 -61 -10 -75 -7 -47 -25 -175 -29 -205 -6 -41
-26 -195 -31 -225 -2 -14 -6 -45 -10 -70 -24 -161 -27 -184 -30 -230 -6 -86
52 -150 136 -150 83 0 131 57 145 170 3 30 8 63 10 74 2 10 6 37 8 60 3 22 12
91 21 151 8 61 18 128 21 150 3 22 9 67 14 100 5 33 12 80 15 105 3 25 8 56
10 70 2 14 7 45 10 70 4 25 8 56 10 70 4 24 9 60 21 153 3 23 7 49 9 57 2 8 6
42 10 74 3 32 7 62 10 66 2 3 7 45 11 93 6 81 5 90 -17 121 -12 18 -31 39 -41
45 -26 16 -99 23 -126 11z"/>
<path d="M1572 5984 c-56 -29 -85 -108 -62 -169 9 -25 806 -1091 859 -1149 31
-34 76 -55 111 -51 14 2 30 4 37 4 26 2 81 62 90 99 15 57 -4 97 -110 235 -51
67 -243 321 -427 565 -183 244 -343 450 -357 459 -35 23 -102 27 -141 7z"/>
<path d="M4438 5066 c-97 -26 -155 -99 -159 -201 -4 -93 19 -166 136 -432 8
-18 21 -48 29 -65 44 -101 51 -133 50 -243 -3 -170 -52 -382 -112 -480 -32
-51 -61 -76 -142 -125 -83 -50 -118 -58 -149 -33 -35 29 -21 55 52 93 122 64
175 120 213 224 l22 61 -40 110 c-22 60 -44 122 -48 136 -20 65 -122 258 -159
300 -61 69 -117 92 -211 86 -87 -6 -88 -6 -197 -42 -79 -25 -113 -45 -78 -45
10 0 32 -15 51 -34 26 -26 34 -42 34 -71 l0 -37 -47 36 c-116 87 -196 116
-318 116 -154 -1 -259 -81 -250 -192 4 -52 46 -135 87 -175 l33 -32 56 19 c73
25 178 34 232 19 68 -18 138 -72 182 -139 38 -58 40 -60 75 -55 64 10 210 75
253 113 23 21 22 1 -3 -47 -26 -52 -100 -116 -183 -158 -63 -31 -68 -36 -63
-61 7 -35 15 -116 21 -222 3 -47 10 -98 17 -115 7 -16 68 -120 136 -229 68
-109 127 -209 132 -220 16 -42 -29 -83 -73 -67 -22 9 -83 87 -209 266 -45 65
-113 191 -126 235 -6 19 -14 83 -17 141 -5 94 -13 156 -30 241 -15 75 -63 151
-112 177 -76 40 -200 -5 -242 -87 -43 -83 -51 -142 -50 -352 0 -163 1 -191 13
-346 7 -86 33 -323 41 -363 1 -9 6 -43 10 -76 4 -32 8 -66 10 -75 1 -8 6 -37
9 -65 4 -27 10 -63 12 -80 3 -16 11 -70 18 -120 67 -461 67 -436 12 -463 -34
-17 -77 -4 -93 29 -11 23 -27 115 -59 344 -22 156 -22 155 -53 155 -84 0 -181
59 -181 111 0 23 -13 25 -31 3 -25 -30 -94 -57 -159 -62 -87 -6 -151 21 -219
92 -66 70 -134 211 -155 321 -2 11 -9 38 -14 60 -6 22 -13 63 -17 90 -3 28 -8
64 -10 80 -3 17 -7 66 -10 110 -4 44 -8 81 -9 83 -4 4 -69 -184 -99 -288 -35
-119 -65 -258 -81 -375 -14 -100 -15 -409 -2 -470 58 -266 134 -425 283 -585
153 -164 394 -304 643 -371 64 -17 283 -62 330 -68 8 -1 96 -4 195 -6 211 -5
291 7 399 61 192 96 396 325 495 554 16 39 83 270 155 540 35 135 72 272 81
305 74 277 267 1069 279 1145 3 19 8 49 11 65 19 115 27 417 13 505 -4 25 -13
66 -22 93 -8 26 -14 49 -14 50 1 5 -45 156 -68 225 -77 232 -167 345 -304 380
-53 13 -150 13 -202 -2z"/>
<path d="M753 4581 c-47 -30 -68 -77 -64 -148 2 -34 58 -91 99 -103 21 -5 61
-12 90 -15 29 -2 81 -9 115 -15 34 -5 78 -12 97 -14 45 -6 256 -35 295 -41 38
-5 238 -34 285 -41 89 -13 169 -23 215 -29 28 -3 59 -8 70 -10 11 -2 43 -7 70
-10 28 -4 58 -9 67 -11 9 -3 46 -7 82 -9 59 -4 68 -1 105 25 66 48 77 129 27
195 -28 36 -63 51 -140 60 -27 3 -59 7 -70 10 -12 2 -43 7 -71 10 -27 3 -63 8
-80 10 -167 24 -398 56 -430 60 -22 3 -51 8 -65 10 -14 3 -45 7 -70 10 -25 3
-56 7 -70 10 -14 2 -45 7 -70 10 -25 3 -56 8 -70 10 -14 2 -43 7 -65 10 -22 2
-74 10 -115 16 -151 22 -202 22 -237 0z"/>
<path d="M2704 4089 c-112 -38 -201 -124 -245 -236 -33 -83 -32 -259 1 -478 5
-33 11 -78 14 -100 18 -156 29 -215 57 -321 60 -229 117 -320 214 -343 63 -15
101 -3 116 36 10 26 8 107 -6 203 -13 89 -16 117 -22 208 -14 190 -8 438 13
612 6 51 42 195 78 315 27 90 24 99 -33 115 -55 15 -119 11 -187 -11z"/>
<path d="M3083 4003 c-47 -66 -91 -216 -108 -359 -15 -139 -21 -418 -11 -546
2 -25 7 -85 11 -133 3 -47 8 -96 10 -108 2 -12 6 -48 10 -81 4 -32 9 -70 11
-85 9 -49 53 -126 86 -148 31 -21 108 -41 108 -29 0 6 -23 160 -35 236 -6 39
-8 57 -25 185 -6 50 -13 104 -15 120 -8 55 -19 299 -18 435 0 172 9 244 52
400 12 41 18 77 13 80 -4 3 -21 18 -38 33 l-32 28 -19 -28z"/>
</g>
</svg>
